<svg width="24" height="25" viewBox="0 0 24 25" fill="none" xmlns="http://www.w3.org/2000/svg">
<path d="M20.9995 16.9767V19.6864C21.0037 20.7223 20.0723 21.5873 19.0265 21.4929C10.0001 21.5 3.00006 14.435 3.00713 5.46919C2.91294 4.42895 3.77364 3.50106 4.80817 3.50009H7.52331C7.96253 3.49577 8.38835 3.651 8.72138 3.93684C9.66819 4.74949 10.2772 7.50777 10.0429 8.60428C9.85994 9.46036 8.99696 10.0593 8.41026 10.6448C9.69864 12.9062 11.5747 14.7785 13.8405 16.0644C14.4272 15.4788 15.0274 14.6176 15.8851 14.435C16.9855 14.2008 19.7615 14.8106 20.5709 15.764C20.858 16.1021 21.0105 16.5337 20.9995 16.9767Z" stroke="white" stroke-width="1.5" stroke-linecap="round" stroke-linejoin="round"/>
</svg>
