<svg width="20" height="21" viewBox="0 0 20 21" fill="none" xmlns="http://www.w3.org/2000/svg">
<path d="M18.9994 14.9767V17.6864C19.0037 18.7223 18.0723 19.5873 17.0264 19.4929C8.00005 19.5 1.00005 12.435 1.00711 3.46919C0.912921 2.42895 1.77362 1.50106 2.80815 1.50009H5.52329C5.96252 1.49577 6.38833 1.651 6.72136 1.93684C7.66818 2.74949 8.27718 5.50777 8.04286 6.60428C7.85992 7.46036 6.99695 8.05929 6.41024 8.64484C7.69862 10.9062 9.57469 12.7785 11.8405 14.0644C12.4272 13.4788 13.0273 12.6176 13.8851 12.435C14.9855 12.2008 17.7615 12.8106 18.5709 13.764C18.8579 14.1021 19.0105 14.5337 18.9994 14.9767Z" stroke="#1FA547" stroke-width="1.5" stroke-linecap="round" stroke-linejoin="round"/>
</svg>
