<svg width="34" height="35" viewBox="0 0 34 35" fill="none" xmlns="http://www.w3.org/2000/svg">
<circle cx="17" cy="17.5" r="17" fill="#CDCDCD"/>
<path d="M17.5068 26.5C16.0188 26.5 14.5579 26.1059 13.267 25.3585L9.95124 26.5L10.6307 22.994C9.56395 21.5332 9 19.8141 9 18C9 13.3118 12.8117 9.5 17.5 9.5C22.1882 9.5 26 13.3118 26 18C26.0136 22.6815 22.2018 26.5 17.5068 26.5ZM13.4233 23.9656L13.6814 24.1287C14.8365 24.8557 16.1615 25.2362 17.5136 25.2362C21.502 25.2362 24.7498 21.9884 24.7498 18C24.7498 14.0116 21.502 10.7638 17.5136 10.7638C13.5184 10.757 10.2706 14.0048 10.2706 17.9932C10.2706 19.6171 10.8006 21.1527 11.8061 22.4436L11.9828 22.6679L11.6091 24.5839L13.4233 23.9656Z" fill="white"/>
<path d="M13.2194 14.7318C13.2194 14.7318 13.7154 13.8621 14.123 13.8077C14.5307 13.7602 15.0539 13.7602 15.1966 14.0252C15.3393 14.2901 15.9712 15.8393 15.9712 15.8393C15.9712 15.8393 16.0799 16.1043 15.91 16.3625C15.7401 16.6139 15.3664 16.9876 15.3664 16.9876C15.3664 16.9876 15.1558 17.2526 15.3664 17.5379C15.5771 17.8233 15.8964 18.3397 16.5623 19.0056C17.2281 19.6714 18.5055 20.1471 18.5055 20.1471C18.5055 20.1471 18.689 20.1742 18.8045 20.0587C18.92 19.9432 19.5519 19.1551 19.5519 19.1551C19.5519 19.1551 19.7557 18.8969 20.0886 19.0463C20.4216 19.2026 21.8824 19.9296 21.8824 19.9296C21.8824 19.9296 22.0523 19.9908 22.0523 20.249C22.0523 20.5072 21.9504 21.1391 21.7329 21.3497C21.5223 21.5603 20.8972 22.2194 19.9596 22.2194C19.0219 22.2194 16.7933 21.4584 15.6042 20.2694C14.4152 19.0803 13.362 17.8777 13.1106 16.7838C12.8796 15.6762 12.9136 15.1802 13.2194 14.7318Z" fill="white"/>
</svg>
