<svg width="17" height="18" viewBox="0 0 17 18" fill="none" xmlns="http://www.w3.org/2000/svg">
<path d="M8.50678 17.5C7.01877 17.5 5.55794 17.1059 4.26698 16.3585L0.951237 17.5L1.63069 13.994C0.563947 12.5332 0 10.8141 0 9C0 4.31175 3.81174 0.5 8.49998 0.5C13.1882 0.5 17 4.31175 17 9C17.0136 13.6815 13.2018 17.5 8.50678 17.5ZM4.42325 14.9656L4.68144 15.1287C5.83652 15.8557 7.16146 16.2362 8.51357 16.2362C12.502 16.2362 15.7498 12.9884 15.7498 9C15.7498 5.01159 12.502 1.76379 8.51357 1.76379C4.51838 1.75699 1.27058 5.0048 1.27058 8.99321C1.27058 10.6171 1.80056 12.1527 2.80615 13.4436L2.98281 13.6679L2.60911 15.5839L4.42325 14.9656Z" fill="white"/>
<path d="M4.21936 5.73179C4.21936 5.73179 4.71536 4.86209 5.12303 4.80773C5.53071 4.76017 6.05389 4.76017 6.19657 5.02516C6.33926 5.29014 6.97115 6.8393 6.97115 6.8393C6.97115 6.8393 7.07986 7.10429 6.91 7.36249C6.74014 7.61389 6.36644 7.98759 6.36644 7.98759C6.36644 7.98759 6.15581 8.25257 6.36644 8.53795C6.57707 8.82332 6.89641 9.3397 7.56228 10.0056C8.22814 10.6714 9.50552 11.1471 9.50552 11.1471C9.50552 11.1471 9.68897 11.1742 9.80448 11.0587C9.91999 10.9432 10.5519 10.1551 10.5519 10.1551C10.5519 10.1551 10.7557 9.89686 11.0886 10.0463C11.4216 10.2026 12.8824 10.9296 12.8824 10.9296C12.8824 10.9296 13.0523 10.9908 13.0523 11.249C13.0523 11.5072 12.9504 12.1391 12.7329 12.3497C12.5223 12.5603 11.8972 13.2194 10.9596 13.2194C10.0219 13.2194 7.79329 12.4584 6.60425 11.2694C5.4152 10.0803 4.36205 8.87768 4.11065 7.78375C3.87963 6.67624 3.91361 6.18023 4.21936 5.73179Z" fill="white"/>
</svg>
