<svg width="145" height="71" viewBox="0 0 145 71" fill="none" xmlns="http://www.w3.org/2000/svg">
<path d="M3.6 68.4C3.384 68.4 3.196 68.312 3.036 68.136C2.876 67.952 2.744 67.74 2.64 67.5C2.536 67.252 2.452 67.04 2.388 66.864C2.244 66.44 2.096 65.98 1.944 65.484C1.792 64.98 1.636 64.472 1.476 63.96C1.324 63.448 1.168 62.964 1.008 62.508C0.848 62.044 0.692 61.648 0.54 61.32V61.188C0.54 61.06 0.568 60.976 0.624 60.936C0.68 60.888 0.8 60.864 0.984 60.864C1.192 60.864 1.344 60.896 1.44 60.96C1.544 61.024 1.632 61.168 1.704 61.392L2.472 63.852C2.696 64.572 2.876 65.14 3.012 65.556C3.148 65.972 3.26 66.28 3.348 66.48C3.436 66.68 3.52 66.808 3.6 66.864C3.688 66.92 3.788 66.948 3.9 66.948C4.044 66.948 4.224 66.804 4.44 66.516C4.656 66.22 4.884 65.808 5.124 65.28C5.364 64.752 5.6 64.132 5.832 63.42C6.072 62.7 6.284 61.92 6.468 61.08C6.492 60.968 6.548 60.872 6.636 60.792C6.732 60.712 6.832 60.672 6.936 60.672C7.056 60.672 7.136 60.716 7.176 60.804C7.224 60.892 7.248 60.996 7.248 61.116C7.248 61.236 7.248 61.344 7.248 61.44C7.248 61.696 7.192 62.036 7.08 62.46C6.968 62.876 6.812 63.34 6.612 63.852C6.42 64.364 6.2 64.888 5.952 65.424C5.704 65.96 5.444 66.468 5.172 66.948C5.06 67.14 4.928 67.348 4.776 67.572C4.632 67.796 4.464 67.992 4.272 68.16C4.08 68.32 3.856 68.4 3.6 68.4ZM12.9878 68.94C12.8438 68.94 12.7478 68.924 12.6998 68.892C12.6598 68.852 12.6398 68.764 12.6398 68.628C12.6398 68.484 12.6678 68.388 12.7238 68.34C12.7878 68.284 12.8558 68.24 12.9278 68.208C12.9998 68.176 13.0678 68.144 13.1318 68.112C13.1958 68.08 13.2558 68.036 13.3118 67.98C13.4558 67.852 13.5278 67.68 13.5278 67.464C13.5278 67.352 13.5238 67.208 13.5158 67.032C13.5158 66.848 13.5158 66.652 13.5158 66.444C13.5158 66.116 13.5158 65.776 13.5158 65.424C13.5238 65.064 13.5358 64.728 13.5518 64.416C13.5678 64.104 13.5878 63.86 13.6118 63.684C13.6358 63.476 13.6558 63.268 13.6718 63.06C13.6958 62.852 13.7198 62.64 13.7438 62.424V62.028C13.6638 61.94 13.5958 61.876 13.5398 61.836C13.4838 61.788 13.4318 61.748 13.3838 61.716L13.1558 61.572C13.0998 61.54 13.0558 61.508 13.0238 61.476C12.9998 61.436 12.9878 61.376 12.9878 61.296C12.9878 61.136 13.0758 61.056 13.2518 61.056C13.3878 61.056 13.5118 61.068 13.6238 61.092C13.7438 61.108 13.8558 61.116 13.9598 61.116H14.0918C14.1318 61.116 14.2318 61.108 14.3918 61.092C14.5518 61.068 14.7198 61.044 14.8958 61.02C15.0558 60.996 15.2078 60.976 15.3518 60.96C15.4958 60.936 15.5838 60.924 15.6158 60.924H15.6878C15.8158 60.924 15.9038 60.948 15.9518 60.996C15.9998 61.036 16.0238 61.116 16.0238 61.236C16.0238 61.364 15.9998 61.448 15.9518 61.488C15.9118 61.528 15.8518 61.556 15.7718 61.572C15.7078 61.588 15.6398 61.604 15.5678 61.62C15.4958 61.636 15.4278 61.652 15.3638 61.668C15.2838 61.692 15.1998 61.728 15.1118 61.776C15.0318 61.824 14.9518 61.904 14.8718 62.016C14.8158 62.32 14.7598 62.624 14.7038 62.928C14.6558 63.224 14.6118 63.524 14.5718 63.828C14.4758 64.652 14.4278 65.492 14.4278 66.348C14.4278 66.5 14.4278 66.632 14.4278 66.744C14.4358 66.856 14.4438 66.976 14.4518 67.104C14.4598 67.232 14.4758 67.396 14.4998 67.596C14.5478 67.764 14.6918 67.872 14.9318 67.92C14.9878 67.928 15.0478 67.94 15.1118 67.956C15.1838 67.964 15.2558 67.976 15.3278 67.992C15.4478 68.016 15.5358 68.052 15.5918 68.1C15.6478 68.14 15.6758 68.212 15.6758 68.316C15.6758 68.396 15.6438 68.464 15.5798 68.52C15.5238 68.568 15.4198 68.612 15.2678 68.652C15.1958 68.668 15.1198 68.68 15.0398 68.688C14.9598 68.696 14.8798 68.704 14.7998 68.712L14.3438 68.748C14.3198 68.756 14.2878 68.76 14.2478 68.76C14.2078 68.76 14.1598 68.768 14.1038 68.784C14.0558 68.792 13.9998 68.804 13.9358 68.82C13.8798 68.828 13.8198 68.84 13.7558 68.856C13.6518 68.872 13.5478 68.892 13.4438 68.916C13.3478 68.932 13.2838 68.94 13.2518 68.94H12.9878ZM22.6207 68.88C22.5407 68.88 22.4607 68.856 22.3807 68.808C22.3087 68.76 22.2607 68.708 22.2367 68.652V68.316C22.2367 68.148 22.2607 67.98 22.3087 67.812C22.3647 67.644 22.4087 67.476 22.4407 67.308C22.4567 67.244 22.4687 67.172 22.4767 67.092C22.4847 67.004 22.4887 66.864 22.4887 66.672H21.8167C21.7607 66.664 21.7047 66.656 21.6487 66.648C21.5927 66.64 21.5447 66.632 21.5047 66.624C21.4487 66.6 21.3967 66.564 21.3487 66.516C21.3087 66.46 21.2887 66.364 21.2887 66.228C21.2887 66.068 21.3247 65.96 21.3967 65.904C21.4767 65.848 21.6007 65.804 21.7687 65.772C21.8567 65.756 21.9487 65.744 22.0447 65.736C22.1487 65.72 22.2447 65.708 22.3327 65.7C22.4287 65.684 22.5287 65.66 22.6327 65.628C22.7367 65.596 22.8327 65.544 22.9207 65.472C22.9607 65.44 23.0047 65.396 23.0527 65.34C23.1087 65.284 23.1367 65.256 23.1367 65.256C23.1527 65.24 23.1687 65.216 23.1847 65.184C23.2007 65.144 23.2207 65.096 23.2447 65.04C23.2607 65.008 23.2767 64.972 23.2927 64.932C23.3087 64.884 23.3207 64.84 23.3287 64.8C23.3527 64.736 23.3727 64.676 23.3887 64.62C23.4127 64.556 23.4367 64.508 23.4607 64.476C23.5167 64.372 23.6007 64.208 23.7127 63.984C23.8247 63.752 23.9447 63.504 24.0727 63.24C24.2087 62.968 24.3287 62.724 24.4327 62.508C24.5447 62.292 24.6247 62.144 24.6727 62.064C24.7527 61.928 24.8327 61.792 24.9127 61.656C25.0007 61.52 25.0967 61.392 25.2007 61.272C25.4247 61 25.6207 60.864 25.7887 60.864C25.9407 60.864 26.0727 60.904 26.1847 60.984C26.2967 61.056 26.4007 61.16 26.4967 61.296C26.5927 61.44 26.6727 61.592 26.7367 61.752C26.8087 61.904 26.8807 62.06 26.9527 62.22C27.3687 63.124 27.7367 64.064 28.0568 65.04C28.3848 66.016 28.6448 66.988 28.8368 67.956V68.124C28.8368 68.26 28.7968 68.38 28.7168 68.484C28.6368 68.58 28.5688 68.628 28.5127 68.628C28.3207 68.628 28.1767 68.56 28.0807 68.424C27.9927 68.288 27.9207 68.084 27.8647 67.812C27.8328 67.676 27.8048 67.544 27.7808 67.416C27.7647 67.28 27.7447 67.152 27.7208 67.032C27.6888 66.92 27.6367 66.8 27.5647 66.672C27.5007 66.536 27.4367 66.428 27.3728 66.348H26.0407C25.9127 66.348 25.7687 66.348 25.6087 66.348C25.4487 66.34 25.2807 66.336 25.1047 66.336C24.9287 66.336 24.7487 66.348 24.5647 66.372C24.3807 66.388 24.2087 66.428 24.0487 66.492C23.8407 66.572 23.6807 66.696 23.5687 66.864C23.4647 67.032 23.3847 67.22 23.3287 67.428C23.2807 67.628 23.2367 67.824 23.1967 68.016C23.1567 68.232 23.1047 68.432 23.0407 68.616C22.9847 68.792 22.8447 68.88 22.6207 68.88ZM25.7167 65.472C26.1647 65.472 26.4767 65.468 26.6527 65.46C26.8287 65.452 26.9447 65.412 27.0008 65.34C27.0247 65.276 27.0367 65.204 27.0367 65.124C27.0367 65.012 27.0167 64.888 26.9767 64.752C26.9447 64.608 26.9047 64.48 26.8567 64.368C26.8247 64.288 26.7767 64.168 26.7127 64.008C26.6487 63.84 26.5767 63.656 26.4967 63.456C26.4167 63.256 26.3407 63.064 26.2687 62.88C26.1967 62.696 26.1407 62.552 26.1007 62.448C26.0847 62.392 26.0487 62.336 25.9927 62.28C25.9447 62.216 25.8848 62.184 25.8127 62.184C25.7487 62.184 25.6847 62.224 25.6207 62.304C25.5487 62.4 25.4487 62.564 25.3207 62.796C25.2007 63.028 25.0687 63.284 24.9247 63.564C24.7807 63.844 24.6487 64.116 24.5287 64.38C24.4087 64.636 24.3207 64.836 24.2647 64.98C24.2167 65.084 24.1927 65.168 24.1927 65.232C24.1927 65.336 24.2327 65.404 24.3127 65.436C24.4007 65.46 24.4887 65.472 24.5767 65.472H25.7167ZM37.03 68.76C36.926 68.76 36.834 68.728 36.754 68.664C36.674 68.592 36.634 68.484 36.634 68.34C36.634 68.308 36.634 68.28 36.634 68.256C36.642 68.224 36.65 68.192 36.658 68.16C36.802 67.456 36.91 66.776 36.982 66.12C37.054 65.464 37.102 64.8 37.126 64.128C37.15 63.448 37.162 62.736 37.162 61.992C36.746 61.992 36.406 62 36.142 62.016C35.878 62.024 35.622 62.036 35.374 62.052C35.294 62.06 35.21 62.068 35.122 62.076C35.034 62.076 34.946 62.076 34.858 62.076C34.802 62.076 34.75 62.076 34.702 62.076C34.654 62.068 34.61 62.06 34.57 62.052C34.418 62.02 34.31 61.972 34.246 61.908C34.19 61.844 34.162 61.748 34.162 61.62C34.162 61.412 34.25 61.284 34.426 61.236C34.602 61.18 34.81 61.136 35.05 61.104C35.21 61.08 35.466 61.06 35.818 61.044C36.17 61.02 36.554 61 36.97 60.984C37.394 60.96 37.806 60.94 38.206 60.924C38.606 60.9 38.934 60.88 39.19 60.864C39.358 60.864 39.562 60.872 39.802 60.888C40.042 60.896 40.278 60.928 40.51 60.984C40.75 61.04 40.95 61.132 41.11 61.26C41.27 61.388 41.35 61.572 41.35 61.812C41.35 61.916 41.31 62.016 41.23 62.112C41.158 62.2 41.074 62.244 40.978 62.244C40.946 62.244 40.914 62.236 40.882 62.22C40.858 62.204 40.83 62.188 40.798 62.172C40.734 62.14 40.67 62.108 40.606 62.076C40.542 62.044 40.474 62.02 40.402 62.004C40.13 61.932 39.834 61.892 39.514 61.884C39.202 61.868 38.798 61.86 38.302 61.86C38.174 61.86 38.11 61.936 38.11 62.088C38.11 62.392 38.106 62.752 38.098 63.168C38.09 63.576 38.074 64.008 38.05 64.464C38.034 64.92 38.006 65.372 37.966 65.82C37.934 66.26 37.894 66.668 37.846 67.044C37.798 67.42 37.742 67.732 37.678 67.98C37.63 68.188 37.55 68.376 37.438 68.544C37.382 68.624 37.31 68.68 37.222 68.712C37.142 68.744 37.078 68.76 37.03 68.76ZM49.2788 68.88C48.6868 68.88 48.2228 68.776 47.8868 68.568C47.5508 68.36 47.3148 68.052 47.1788 67.644C47.0508 67.228 46.9868 66.716 46.9868 66.108C46.9868 65.828 46.9988 65.528 47.0228 65.208C46.7108 65.088 46.5548 64.94 46.5548 64.764C46.5548 64.612 46.6028 64.504 46.6988 64.44C46.8028 64.368 46.9188 64.312 47.0468 64.272C47.1828 64.232 47.2948 64.184 47.3828 64.128C47.3988 64.032 47.4228 63.888 47.4548 63.696C47.4868 63.496 47.5188 63.288 47.5508 63.072C47.5908 62.848 47.6268 62.652 47.6588 62.484C47.6908 62.308 47.7108 62.2 47.7188 62.16C47.6308 62.112 47.5108 62.084 47.3588 62.076C47.2148 62.06 47.0868 62.028 46.9748 61.98C46.8628 61.932 46.8068 61.832 46.8068 61.68C46.8068 61.52 46.8508 61.404 46.9388 61.332C47.0268 61.252 47.1708 61.196 47.3708 61.164C47.8828 61.076 48.3748 61.004 48.8468 60.948C49.3188 60.892 49.8108 60.864 50.3228 60.864C50.4348 60.864 50.5868 60.864 50.7788 60.864C50.9708 60.864 51.1628 60.88 51.3548 60.912C51.5548 60.936 51.7228 60.988 51.8588 61.068C51.9948 61.148 52.0628 61.268 52.0628 61.428C52.0628 61.516 52.0348 61.592 51.9788 61.656C51.9308 61.72 51.8748 61.752 51.8108 61.752H50.0108C49.9788 61.752 49.8908 61.756 49.7468 61.764C49.6028 61.764 49.4468 61.772 49.2788 61.788C49.1108 61.804 48.9708 61.836 48.8588 61.884C48.7388 61.932 48.6428 62.08 48.5708 62.328C48.4988 62.576 48.4468 62.872 48.4148 63.216C48.3828 63.552 48.3668 63.884 48.3668 64.212C48.4708 64.204 48.6268 64.196 48.8348 64.188C49.0428 64.172 49.2588 64.16 49.4828 64.152C49.7148 64.144 49.9068 64.14 50.0588 64.14H50.5388C50.7228 64.14 50.8468 64.18 50.9108 64.26C50.9828 64.34 51.0188 64.448 51.0188 64.584C51.0188 64.856 50.8668 65.004 50.5628 65.028L48.5348 65.16C48.3108 65.168 48.1588 65.208 48.0788 65.28C48.0068 65.344 47.9588 65.468 47.9348 65.652C47.9188 65.804 47.9068 65.92 47.8988 66C47.8988 66.08 47.8988 66.152 47.8988 66.216C47.9068 66.272 47.9108 66.324 47.9108 66.372C47.9108 66.412 47.9108 66.448 47.9108 66.48C47.9108 66.664 47.9268 66.86 47.9588 67.068C47.9908 67.268 48.0628 67.448 48.1748 67.608C48.2948 67.768 48.4788 67.876 48.7268 67.932H49.3388C49.7388 67.932 50.1628 67.9 50.6108 67.836C51.0668 67.772 51.4668 67.7 51.8108 67.62C51.8268 67.612 51.8468 67.608 51.8708 67.608C51.8948 67.608 51.9108 67.608 51.9188 67.608C52.0308 67.608 52.1028 67.648 52.1348 67.728C52.1748 67.808 52.1948 67.896 52.1948 67.992C52.1948 68.352 51.8308 68.604 51.1028 68.748C50.8468 68.804 50.5548 68.84 50.2268 68.856C49.8988 68.872 49.5828 68.88 49.2788 68.88ZM57.9815 68.64C57.9015 68.56 57.8535 68.468 57.8375 68.364C57.8215 68.26 57.8135 68.12 57.8135 67.944C57.8135 67.712 57.8375 67.476 57.8855 67.236C57.9335 66.988 57.9895 66.74 58.0535 66.492C58.1175 66.228 58.1815 65.968 58.2455 65.712C58.3175 65.448 58.3695 65.184 58.4015 64.92V63.96C58.4015 63.576 58.3895 63.196 58.3655 62.82C58.3495 62.436 58.3415 62.056 58.3415 61.68V61.188C58.3575 61.076 58.3895 61.004 58.4375 60.972C58.4855 60.932 58.5775 60.912 58.7135 60.912C58.8575 60.912 58.9695 60.964 59.0495 61.068C59.1295 61.172 59.1855 61.304 59.2175 61.464C59.2575 61.624 59.2775 61.788 59.2775 61.956C59.2855 62.116 59.2895 62.252 59.2895 62.364C59.2895 62.428 59.2935 62.552 59.3015 62.736C59.3095 62.92 59.3135 63.128 59.3135 63.36C59.3215 63.584 59.3295 63.808 59.3375 64.032C59.3455 64.248 59.3495 64.428 59.3495 64.572C59.3495 64.788 59.4055 64.896 59.5175 64.896C59.5975 64.896 59.6855 64.836 59.7815 64.716C59.8055 64.692 59.8615 64.64 59.9495 64.56C60.0375 64.472 60.1335 64.384 60.2375 64.296C60.3415 64.2 60.4255 64.132 60.4895 64.092C60.5455 64.044 60.6295 63.96 60.7415 63.84C60.8535 63.72 60.9735 63.588 61.1015 63.444C61.2295 63.3 61.3455 63.168 61.4495 63.048C61.5535 62.928 61.6295 62.844 61.6775 62.796C61.7415 62.724 61.8095 62.64 61.8815 62.544C61.9535 62.448 62.0215 62.348 62.0855 62.244C62.1495 62.14 62.2175 62.032 62.2895 61.92C62.3615 61.808 62.4375 61.7 62.5175 61.596C62.6375 61.42 62.7615 61.264 62.8895 61.128C63.0175 60.984 63.1535 60.912 63.2975 60.912C63.4175 60.912 63.5215 60.956 63.6095 61.044C63.6975 61.132 63.7415 61.236 63.7415 61.356C63.7415 61.588 63.6655 61.836 63.5135 62.1C63.3615 62.356 63.1775 62.608 62.9615 62.856C62.7455 63.096 62.5375 63.316 62.3375 63.516C62.2895 63.564 62.1855 63.652 62.0255 63.78C61.8735 63.908 61.7015 64.052 61.5095 64.212C61.3255 64.364 61.1495 64.508 60.9815 64.644C60.8215 64.78 60.7055 64.88 60.6335 64.944C60.5535 65 60.5135 65.048 60.5135 65.088C60.5135 65.128 60.5535 65.172 60.6335 65.22L60.9935 65.424C61.0495 65.456 61.1415 65.516 61.2695 65.604C61.3975 65.692 61.5335 65.792 61.6775 65.904C61.8295 66.008 61.9695 66.104 62.0975 66.192C62.2255 66.272 62.3135 66.332 62.3615 66.372C62.5535 66.508 62.7655 66.672 62.9975 66.864C63.2375 67.056 63.4415 67.264 63.6095 67.488C63.7855 67.712 63.8735 67.952 63.8735 68.208C63.8735 68.28 63.8495 68.34 63.8015 68.388C63.7535 68.428 63.6495 68.448 63.4895 68.448C63.4175 68.448 63.3255 68.416 63.2135 68.352C63.1015 68.288 62.9855 68.204 62.8655 68.1C62.8255 68.076 62.7535 68.024 62.6495 67.944C62.5535 67.856 62.4495 67.76 62.3375 67.656L62.0015 67.356C61.9455 67.3 61.8935 67.256 61.8455 67.224C61.7975 67.184 61.7655 67.16 61.7495 67.152C61.6695 67.104 61.5375 67 61.3535 66.84C61.1695 66.68 60.9735 66.524 60.7655 66.372C60.5495 66.22 60.3615 66.096 60.2015 66C60.0495 65.904 59.9335 65.824 59.8535 65.76L59.5655 65.52C59.5495 65.504 59.5255 65.48 59.4935 65.448C59.4615 65.416 59.4255 65.4 59.3855 65.4C59.3615 65.4 59.3335 65.42 59.3015 65.46C59.2775 65.492 59.2535 65.556 59.2295 65.652C59.1895 65.804 59.1495 66.008 59.1095 66.264C59.0695 66.512 59.0335 66.748 59.0015 66.972C58.9695 67.196 58.9415 67.352 58.9175 67.44C58.8855 67.576 58.8455 67.72 58.7975 67.872C58.7575 68.024 58.7055 68.164 58.6415 68.292C58.5775 68.404 58.5055 68.492 58.4255 68.556C58.3455 68.612 58.2495 68.64 58.1375 68.64H57.9815Z" fill="#59955C"/>
<path d="M81.0187 69C80.4267 69 79.9147 68.9 79.4827 68.7C79.0587 68.492 78.7307 68.212 78.4987 67.86C78.2747 67.508 78.1627 67.108 78.1627 66.66C78.1627 66.492 78.1907 66.368 78.2467 66.288C78.3027 66.208 78.4067 66.168 78.5587 66.168C78.5907 66.168 78.6547 66.184 78.7507 66.216C78.8467 66.24 78.9187 66.288 78.9667 66.36C79.0547 66.624 79.1667 66.892 79.3027 67.164C79.4467 67.436 79.6427 67.664 79.8907 67.848C80.1467 68.032 80.4787 68.124 80.8867 68.124C81.2787 68.124 81.6307 68.08 81.9427 67.992C82.2547 67.896 82.4987 67.748 82.6747 67.548C82.8587 67.34 82.9507 67.068 82.9507 66.732C82.9507 66.476 82.8747 66.26 82.7227 66.084C82.5787 65.9 82.4147 65.756 82.2307 65.652C81.7187 65.372 81.2667 65.136 80.8747 64.944C80.4827 64.752 80.1507 64.568 79.8787 64.392C79.6147 64.208 79.4107 63.992 79.2667 63.744C79.1307 63.488 79.0627 63.16 79.0627 62.76C79.0627 62.152 79.3027 61.684 79.7827 61.356C80.2707 61.028 80.9027 60.864 81.6787 60.864C81.8627 60.864 82.0787 60.888 82.3267 60.936C82.5827 60.976 82.8307 61.04 83.0707 61.128C83.3187 61.216 83.5227 61.332 83.6827 61.476C83.8427 61.62 83.9227 61.796 83.9227 62.004C83.9227 62.116 83.8787 62.216 83.7907 62.304C83.7027 62.392 83.5987 62.436 83.4787 62.436C83.3027 62.436 83.1547 62.404 83.0347 62.34C82.9227 62.268 82.7987 62.188 82.6627 62.1C82.5107 61.996 82.3347 61.9 82.1347 61.812C81.9427 61.724 81.6947 61.68 81.3907 61.68C81.1587 61.68 80.9347 61.724 80.7187 61.812C80.5027 61.892 80.3227 62.008 80.1787 62.16C80.0427 62.312 79.9747 62.488 79.9747 62.688C79.9747 62.944 80.0467 63.164 80.1907 63.348C80.3347 63.532 80.5067 63.692 80.7067 63.828C80.8027 63.884 80.9067 63.944 81.0187 64.008C81.1307 64.064 81.2467 64.124 81.3667 64.188C81.4787 64.244 81.5947 64.3 81.7147 64.356C81.8427 64.412 81.9667 64.472 82.0867 64.536C82.4227 64.696 82.7267 64.872 82.9987 65.064C83.2787 65.256 83.5027 65.484 83.6707 65.748C83.8387 66.012 83.9227 66.34 83.9227 66.732C83.9227 67.212 83.7827 67.624 83.5027 67.968C83.2227 68.304 82.8627 68.56 82.4227 68.736C81.9827 68.912 81.5147 69 81.0187 69ZM90.5825 68.88C90.5025 68.88 90.4225 68.856 90.3425 68.808C90.2705 68.76 90.2225 68.708 90.1985 68.652V68.316C90.1985 68.148 90.2225 67.98 90.2705 67.812C90.3265 67.644 90.3705 67.476 90.4025 67.308C90.4185 67.244 90.4305 67.172 90.4385 67.092C90.4465 67.004 90.4505 66.864 90.4505 66.672H89.7785C89.7225 66.664 89.6665 66.656 89.6105 66.648C89.5545 66.64 89.5065 66.632 89.4665 66.624C89.4105 66.6 89.3585 66.564 89.3105 66.516C89.2705 66.46 89.2505 66.364 89.2505 66.228C89.2505 66.068 89.2865 65.96 89.3585 65.904C89.4385 65.848 89.5625 65.804 89.7305 65.772C89.8185 65.756 89.9105 65.744 90.0065 65.736C90.1105 65.72 90.2065 65.708 90.2945 65.7C90.3905 65.684 90.4905 65.66 90.5945 65.628C90.6985 65.596 90.7945 65.544 90.8825 65.472C90.9225 65.44 90.9665 65.396 91.0145 65.34C91.0705 65.284 91.0985 65.256 91.0985 65.256C91.1145 65.24 91.1305 65.216 91.1465 65.184C91.1625 65.144 91.1825 65.096 91.2065 65.04C91.2225 65.008 91.2385 64.972 91.2545 64.932C91.2705 64.884 91.2825 64.84 91.2905 64.8C91.3145 64.736 91.3345 64.676 91.3505 64.62C91.3745 64.556 91.3985 64.508 91.4225 64.476C91.4785 64.372 91.5625 64.208 91.6745 63.984C91.7865 63.752 91.9065 63.504 92.0345 63.24C92.1705 62.968 92.2905 62.724 92.3945 62.508C92.5065 62.292 92.5865 62.144 92.6345 62.064C92.7145 61.928 92.7945 61.792 92.8745 61.656C92.9625 61.52 93.0585 61.392 93.1625 61.272C93.3865 61 93.5825 60.864 93.7505 60.864C93.9025 60.864 94.0345 60.904 94.1465 60.984C94.2585 61.056 94.3625 61.16 94.4585 61.296C94.5545 61.44 94.6345 61.592 94.6985 61.752C94.7705 61.904 94.8425 62.06 94.9145 62.22C95.3305 63.124 95.6985 64.064 96.0185 65.04C96.3465 66.016 96.6065 66.988 96.7985 67.956V68.124C96.7985 68.26 96.7585 68.38 96.6785 68.484C96.5985 68.58 96.5305 68.628 96.4745 68.628C96.2825 68.628 96.1385 68.56 96.0425 68.424C95.9545 68.288 95.8825 68.084 95.8265 67.812C95.7945 67.676 95.7665 67.544 95.7425 67.416C95.7265 67.28 95.7065 67.152 95.6825 67.032C95.6505 66.92 95.5985 66.8 95.5265 66.672C95.4625 66.536 95.3985 66.428 95.3345 66.348H94.0025C93.8745 66.348 93.7305 66.348 93.5705 66.348C93.4105 66.34 93.2425 66.336 93.0665 66.336C92.8905 66.336 92.7105 66.348 92.5265 66.372C92.3425 66.388 92.1705 66.428 92.0105 66.492C91.8025 66.572 91.6425 66.696 91.5305 66.864C91.4265 67.032 91.3465 67.22 91.2905 67.428C91.2425 67.628 91.1985 67.824 91.1585 68.016C91.1185 68.232 91.0665 68.432 91.0025 68.616C90.9465 68.792 90.8065 68.88 90.5825 68.88ZM93.6785 65.472C94.1265 65.472 94.4385 65.468 94.6145 65.46C94.7905 65.452 94.9065 65.412 94.9625 65.34C94.9865 65.276 94.9985 65.204 94.9985 65.124C94.9985 65.012 94.9785 64.888 94.9385 64.752C94.9065 64.608 94.8665 64.48 94.8185 64.368C94.7865 64.288 94.7385 64.168 94.6745 64.008C94.6105 63.84 94.5385 63.656 94.4585 63.456C94.3785 63.256 94.3025 63.064 94.2305 62.88C94.1585 62.696 94.1025 62.552 94.0625 62.448C94.0465 62.392 94.0105 62.336 93.9545 62.28C93.9065 62.216 93.8465 62.184 93.7745 62.184C93.7105 62.184 93.6465 62.224 93.5825 62.304C93.5105 62.4 93.4105 62.564 93.2825 62.796C93.1625 63.028 93.0305 63.284 92.8865 63.564C92.7425 63.844 92.6105 64.116 92.4905 64.38C92.3705 64.636 92.2825 64.836 92.2265 64.98C92.1785 65.084 92.1545 65.168 92.1545 65.232C92.1545 65.336 92.1945 65.404 92.2745 65.436C92.3625 65.46 92.4505 65.472 92.5385 65.472H93.6785ZM102.676 68.94C102.516 68.94 102.408 68.888 102.352 68.784C102.304 68.68 102.28 68.556 102.28 68.412C102.288 68.26 102.292 68.12 102.292 67.992C102.292 67.184 102.372 66.388 102.532 65.604C102.692 64.82 102.88 64.04 103.096 63.264C103.112 63.216 103.14 63.128 103.18 63C103.22 62.864 103.264 62.72 103.312 62.568C103.36 62.416 103.404 62.276 103.444 62.148C103.492 62.02 103.524 61.932 103.54 61.884C103.628 61.612 103.732 61.416 103.852 61.296C103.972 61.168 104.144 61.104 104.368 61.104C104.568 61.104 104.736 61.176 104.872 61.32C105.016 61.456 105.132 61.624 105.22 61.824C105.316 62.016 105.392 62.2 105.448 62.376C105.584 62.792 105.724 63.216 105.868 63.648C106.012 64.072 106.148 64.492 106.276 64.908C106.34 65.116 106.428 65.22 106.54 65.22C106.684 65.22 106.82 65.048 106.948 64.704C107.012 64.528 107.088 64.316 107.176 64.068C107.272 63.812 107.368 63.556 107.464 63.3C107.56 63.036 107.644 62.8 107.716 62.592C107.796 62.384 107.852 62.236 107.884 62.148C108.012 61.82 108.152 61.556 108.304 61.356C108.464 61.148 108.688 61.044 108.976 61.044C109.192 61.044 109.368 61.12 109.504 61.272C109.64 61.416 109.752 61.596 109.84 61.812C109.928 62.02 110 62.224 110.056 62.424C110.272 63.24 110.436 64.068 110.548 64.908C110.668 65.748 110.728 66.584 110.728 67.416V67.884C110.696 67.988 110.652 68.056 110.596 68.088C110.54 68.112 110.44 68.124 110.296 68.124C110.096 68.124 109.952 67.992 109.864 67.728C109.816 67.584 109.784 67.436 109.768 67.284C109.752 67.132 109.736 66.98 109.72 66.828C109.64 66.012 109.568 65.36 109.504 64.872C109.448 64.376 109.396 63.992 109.348 63.72C109.308 63.448 109.272 63.24 109.24 63.096C109.208 62.944 109.176 62.804 109.144 62.676C109.12 62.532 109.052 62.46 108.94 62.46C108.82 62.46 108.724 62.532 108.652 62.676C108.604 62.82 108.532 63.028 108.436 63.3C108.348 63.572 108.248 63.86 108.136 64.164C108.024 64.468 107.924 64.744 107.836 64.992C107.748 65.24 107.688 65.412 107.656 65.508C107.616 65.612 107.56 65.756 107.488 65.94C107.416 66.116 107.328 66.292 107.224 66.468C107.128 66.644 107.016 66.796 106.888 66.924C106.768 67.044 106.64 67.104 106.504 67.104C106.376 67.104 106.26 67.052 106.156 66.948C106.052 66.836 105.964 66.708 105.892 66.564C105.828 66.42 105.776 66.3 105.736 66.204L104.74 63.264C104.732 63.224 104.716 63.168 104.692 63.096C104.668 63.016 104.628 62.944 104.572 62.88C104.524 62.808 104.452 62.772 104.356 62.772C104.268 62.772 104.196 62.812 104.14 62.892C104.092 62.972 104.056 63.064 104.032 63.168C104.008 63.272 103.992 63.356 103.984 63.42C103.968 63.5 103.944 63.604 103.912 63.732C103.88 63.852 103.848 63.98 103.816 64.116C103.784 64.236 103.756 64.352 103.732 64.464C103.716 64.568 103.7 64.648 103.684 64.704C103.676 64.76 103.656 64.86 103.624 65.004C103.6 65.148 103.576 65.3 103.552 65.46C103.488 65.876 103.428 66.284 103.372 66.684C103.324 67.076 103.276 67.504 103.228 67.968C103.22 68.104 103.2 68.248 103.168 68.4C103.136 68.552 103.08 68.68 103 68.784C102.928 68.888 102.82 68.94 102.676 68.94ZM117.718 69.12C117.526 69.12 117.378 69.048 117.274 68.904C117.178 68.76 117.11 68.584 117.07 68.376C117.038 68.168 117.018 67.964 117.01 67.764C117.01 67.564 117.01 67.412 117.01 67.308V65.976C117.01 65.376 117.042 64.756 117.106 64.116C117.17 63.476 117.202 62.796 117.202 62.076C116.786 62.076 116.51 62.04 116.374 61.968C116.246 61.896 116.182 61.74 116.182 61.5C116.182 61.364 116.254 61.244 116.398 61.14C116.542 61.036 116.742 60.968 116.998 60.936C117.07 60.912 117.206 60.888 117.406 60.864C117.614 60.84 117.846 60.82 118.102 60.804C118.358 60.78 118.602 60.764 118.834 60.756C119.074 60.74 119.262 60.732 119.398 60.732C120.19 60.732 120.838 60.8 121.342 60.936C121.846 61.064 122.218 61.284 122.458 61.596C122.706 61.908 122.83 62.34 122.83 62.892C122.83 63.284 122.726 63.66 122.518 64.02C122.318 64.372 122.046 64.688 121.702 64.968C121.358 65.248 120.97 65.476 120.538 65.652C120.106 65.828 119.666 65.936 119.218 65.976C119.138 65.984 119.054 65.992 118.966 66C118.878 66 118.782 66 118.678 66C118.438 66 118.202 65.988 117.97 65.964C117.97 66.404 117.978 66.784 117.994 67.104C118.018 67.416 118.03 67.712 118.03 67.992V68.364C118.03 68.5 118.018 68.636 117.994 68.772C117.962 68.908 117.922 69 117.874 69.048C117.834 69.096 117.782 69.12 117.718 69.12ZM119.434 64.968C119.618 64.968 119.85 64.908 120.13 64.788C120.41 64.66 120.69 64.496 120.97 64.296C121.25 64.088 121.482 63.86 121.666 63.612C121.858 63.364 121.954 63.12 121.954 62.88C121.954 62.552 121.87 62.312 121.702 62.16C121.534 62 121.326 61.892 121.078 61.836C120.838 61.78 120.594 61.732 120.346 61.692C120.218 61.668 120.074 61.652 119.914 61.644C119.762 61.636 119.606 61.632 119.446 61.632C119.054 61.632 118.738 61.652 118.498 61.692C118.442 61.7 118.386 61.728 118.33 61.776C118.274 61.816 118.238 61.884 118.222 61.98C118.182 62.276 118.146 62.604 118.114 62.964C118.082 63.324 118.054 63.68 118.03 64.032C118.006 64.376 117.986 64.688 117.97 64.968H119.434ZM128.657 68.7C128.505 68.7 128.397 68.676 128.333 68.628C128.277 68.572 128.237 68.484 128.213 68.364V67.824C128.213 67.16 128.241 66.496 128.297 65.832C128.353 65.16 128.405 64.488 128.453 63.816C128.509 63.136 128.537 62.46 128.537 61.788C128.537 61.604 128.585 61.452 128.681 61.332C128.777 61.212 128.901 61.152 129.053 61.152C129.221 61.152 129.329 61.2 129.377 61.296C129.433 61.392 129.457 61.508 129.449 61.644C129.449 61.78 129.449 61.912 129.449 62.04C129.449 62.928 129.405 63.828 129.317 64.74C129.229 65.644 129.185 66.604 129.185 67.62C129.417 67.588 129.705 67.552 130.049 67.512C130.393 67.472 130.733 67.432 131.069 67.392C131.413 67.352 131.689 67.324 131.897 67.308H132.269C132.357 67.308 132.469 67.308 132.605 67.308C132.741 67.308 132.877 67.32 133.013 67.344C133.157 67.36 133.273 67.4 133.361 67.464C133.457 67.528 133.505 67.624 133.505 67.752C133.505 67.952 133.441 68.08 133.313 68.136C133.193 68.192 133.053 68.22 132.893 68.22C132.829 68.22 132.765 68.22 132.701 68.22C132.637 68.212 132.573 68.208 132.509 68.208C132.029 68.208 131.457 68.248 130.793 68.328C130.129 68.4 129.477 68.524 128.837 68.7H128.657ZM141.273 68.88C140.681 68.88 140.217 68.776 139.881 68.568C139.545 68.36 139.309 68.052 139.173 67.644C139.045 67.228 138.981 66.716 138.981 66.108C138.981 65.828 138.993 65.528 139.017 65.208C138.705 65.088 138.549 64.94 138.549 64.764C138.549 64.612 138.597 64.504 138.693 64.44C138.797 64.368 138.913 64.312 139.041 64.272C139.177 64.232 139.289 64.184 139.377 64.128C139.393 64.032 139.417 63.888 139.449 63.696C139.481 63.496 139.513 63.288 139.545 63.072C139.585 62.848 139.621 62.652 139.653 62.484C139.685 62.308 139.705 62.2 139.713 62.16C139.625 62.112 139.505 62.084 139.353 62.076C139.209 62.06 139.081 62.028 138.969 61.98C138.857 61.932 138.801 61.832 138.801 61.68C138.801 61.52 138.845 61.404 138.933 61.332C139.021 61.252 139.165 61.196 139.365 61.164C139.877 61.076 140.369 61.004 140.841 60.948C141.313 60.892 141.805 60.864 142.317 60.864C142.429 60.864 142.581 60.864 142.773 60.864C142.965 60.864 143.157 60.88 143.349 60.912C143.549 60.936 143.717 60.988 143.853 61.068C143.989 61.148 144.057 61.268 144.057 61.428C144.057 61.516 144.029 61.592 143.973 61.656C143.925 61.72 143.869 61.752 143.805 61.752H142.005C141.973 61.752 141.885 61.756 141.741 61.764C141.597 61.764 141.441 61.772 141.273 61.788C141.105 61.804 140.965 61.836 140.853 61.884C140.733 61.932 140.637 62.08 140.565 62.328C140.493 62.576 140.441 62.872 140.409 63.216C140.377 63.552 140.361 63.884 140.361 64.212C140.465 64.204 140.621 64.196 140.829 64.188C141.037 64.172 141.253 64.16 141.477 64.152C141.709 64.144 141.901 64.14 142.053 64.14H142.533C142.717 64.14 142.841 64.18 142.905 64.26C142.977 64.34 143.013 64.448 143.013 64.584C143.013 64.856 142.861 65.004 142.557 65.028L140.529 65.16C140.305 65.168 140.153 65.208 140.073 65.28C140.001 65.344 139.953 65.468 139.929 65.652C139.913 65.804 139.901 65.92 139.893 66C139.893 66.08 139.893 66.152 139.893 66.216C139.901 66.272 139.905 66.324 139.905 66.372C139.905 66.412 139.905 66.448 139.905 66.48C139.905 66.664 139.921 66.86 139.953 67.068C139.985 67.268 140.057 67.448 140.169 67.608C140.289 67.768 140.473 67.876 140.721 67.932H141.333C141.733 67.932 142.157 67.9 142.605 67.836C143.061 67.772 143.461 67.7 143.805 67.62C143.821 67.612 143.841 67.608 143.865 67.608C143.889 67.608 143.905 67.608 143.913 67.608C144.025 67.608 144.097 67.648 144.129 67.728C144.169 67.808 144.189 67.896 144.189 67.992C144.189 68.352 143.825 68.604 143.097 68.748C142.841 68.804 142.549 68.84 142.221 68.856C141.893 68.872 141.577 68.88 141.273 68.88Z" fill="#2E3441"/>
<mask id="mask0_6029_364" style="mask-type:alpha" maskUnits="userSpaceOnUse" x="1" y="0" width="61" height="51">
<path fill-rule="evenodd" clip-rule="evenodd" d="M19.732 0.0195644H1L22.925 50.2049H41.1347L61.7444 0H49.5847L34.5615 36.1701L19.732 0.0195644Z" fill="black"/>
</mask>
<g mask="url(#mask0_6029_364)">
<rect x="-320.393" y="-2.36667" width="375.984" height="54.9067" fill="url(#paint0_linear_6029_364)"/>
</g>
<mask id="mask1_6029_364" style="mask-type:alpha" maskUnits="userSpaceOnUse" x="22" y="0" width="62" height="51">
<path fill-rule="evenodd" clip-rule="evenodd" d="M41.1915 50.1734H22.9146L44.5358 0.00411987H61.6512L83.2022 49.9776H70.4958L56.0114 13.9791L41.1915 50.1734Z" fill="#1B3E8B"/>
</mask>
<g mask="url(#mask1_6029_364)">
<rect x="-310.393" y="-2.36667" width="375.984" height="54.9067" fill="url(#paint1_linear_6029_364)"/>
</g>
<mask id="mask2_6029_364" style="mask-type:alpha" maskUnits="userSpaceOnUse" x="44" y="0" width="89" height="50">
<path fill-rule="evenodd" clip-rule="evenodd" d="M44.5677 0L61.6545 0.0195644L74.8632 29.6909L87.7075 0.00410542H91.5059L91.5076 0H97.6838L97.6821 0.00410542H110.728L132.28 49.9775H113.667L99.183 13.9791L84.559 49.9775H77.3021L77.3021 49.9777H64.9495L44.5677 0Z" fill="#19BF84"/>
</mask>
<g mask="url(#mask2_6029_364)">
<rect x="-243.556" y="-2.36667" width="375.984" height="54.9067" fill="url(#paint2_linear_6029_364)"/>
</g>
<defs>
<linearGradient id="paint0_linear_6029_364" x1="-320.393" y1="-2.36667" x2="55.591" y2="-2.36667" gradientUnits="userSpaceOnUse">
<stop stop-color="#305A4B"/>
<stop offset="0.226479"/>
<stop offset="0.5625" stop-color="#59955C"/>
<stop offset="0.872405" stop-color="#305A4B"/>
<stop offset="1" stop-color="#305A4B"/>
</linearGradient>
<linearGradient id="paint1_linear_6029_364" x1="-310.393" y1="14.3578" x2="65.591" y2="14.3578" gradientUnits="userSpaceOnUse">
<stop stop-color="#8DCD90"/>
<stop offset="0.25" stop-color="#8DCD90"/>
<stop offset="0.463542" stop-color="#003220"/>
<stop offset="0.755208" stop-color="#59955C"/>
<stop offset="1" stop-color="#59955C"/>
</linearGradient>
<linearGradient id="paint2_linear_6029_364" x1="-243.556" y1="14.3578" x2="132.429" y2="14.3578" gradientUnits="userSpaceOnUse">
<stop stop-color="#59955C"/>
<stop offset="0.25" stop-color="#59955C"/>
<stop offset="0.463542" stop-color="#305A4B"/>
<stop offset="0.755208" stop-color="#8DCD90"/>
<stop offset="1" stop-color="#8DCD90"/>
</linearGradient>
</defs>
</svg>
