<?xml version="1.0" encoding="UTF-8"?>
<svg xmlns="http://www.w3.org/2000/svg" xmlns:xlink="http://www.w3.org/1999/xlink" width="20px" height="20px" viewBox="0 0 20 20" version="1.1">
<g id="surface1">
<path style=" stroke:none;fill-rule:nonzero;fill:rgb(12.156863%,64.705884%,27.843139%);fill-opacity:1;" d="M 8 2.382812 C 4.6875 2.382812 2 4.9375 2 8.09375 C 2 11.25 4.6875 13.808594 8 13.808594 C 11.3125 13.808594 14 11.25 14 8.09375 C 14 4.9375 11.3125 2.382812 8 2.382812 Z M 0 8.09375 C 0 3.886719 3.582031 0.476562 8 0.476562 C 12.417969 0.476562 16 3.886719 16 8.09375 C 16 9.855469 15.371094 11.476562 14.320312 12.765625 L 19.707031 17.898438 C 20.097656 18.269531 20.097656 18.871094 19.707031 19.246094 C 19.316406 19.617188 18.683594 19.617188 18.292969 19.246094 L 12.90625 14.113281 C 11.550781 15.117188 9.847656 15.714844 8 15.714844 C 3.582031 15.714844 0 12.304688 0 8.09375 Z M 0 8.09375 "/>
</g>
</svg>
