<svg width="17" height="15" viewBox="0 0 17 15" fill="none" xmlns="http://www.w3.org/2000/svg">
<path d="M16.1616 0.5C16.1049 0.5 16.0401 0.5081 15.9834 0.5324L0.326135 6.48589C-0.119364 6.65599 -0.103164 7.27969 0.342335 7.43359L3.97113 8.65668L6.15812 13.0388L6.16622 13.0469C6.20672 13.1279 6.28772 13.1765 6.37682 13.1765C6.42542 13.1765 6.48212 13.1603 6.53072 13.1198L8.58002 11.3783L6.28772 9.64488L6.46592 11.9291L4.82162 8.51898L13.5696 3.26209L6.28772 9.63678L11.9577 13.9379C12.144 14.0837 12.3627 14.1485 12.5814 14.1485C13.0269 14.1485 13.4643 13.8569 13.5858 13.3628L16.6476 1.1075C16.7286 0.799699 16.4694 0.5 16.1616 0.5Z" fill="white"/>
</svg>
