<svg width="133" height="71" viewBox="0 0 133 71" fill="none" xmlns="http://www.w3.org/2000/svg">
<path d="M3.408 70.336L0.132 61.6H1.02L3.408 68.236L5.796 61.6H6.684L3.408 70.336ZM12.0763 70V61.6H12.8923V70H12.0763ZM18.282 70L22.05 61.36L25.806 70H24.966L23.802 67.264H20.286L19.122 70H18.282ZM20.574 66.592H23.514L22.05 63.148L20.574 66.592ZM32.519 70V62.272H30.275V61.6H35.579V62.272H33.335V70H32.519ZM40.9654 70V61.6H45.4654V62.272H41.7814V64.96H45.3334V65.632H41.7814V69.328H45.4654V70H40.9654ZM51.388 70V61.6H52.204V65.5L55.96 61.6H56.968L52.984 65.668L57.052 70H55.96L52.204 65.92V70H51.388Z" fill="#8DCD90"/>
<path d="M75.1105 62.632L74.4625 63.016C74.4545 63 74.4465 62.98 74.4385 62.956C74.4305 62.932 74.4185 62.912 74.4025 62.896C74.2905 62.68 74.1185 62.484 73.8865 62.308C73.6545 62.124 73.3425 62.032 72.9505 62.032C72.5265 62.032 72.2065 62.12 71.9905 62.296C71.7745 62.464 71.6265 62.648 71.5465 62.848C71.5065 62.928 71.4785 63.008 71.4625 63.088C71.4545 63.168 71.4505 63.244 71.4505 63.316C71.4505 63.74 71.6065 64.072 71.9185 64.312C72.2385 64.552 72.5905 64.76 72.9745 64.936C73.0385 64.968 73.1025 65 73.1665 65.032C73.2305 65.056 73.2945 65.084 73.3585 65.116C73.3825 65.124 73.4025 65.136 73.4185 65.152C73.4425 65.16 73.4665 65.168 73.4905 65.176C74.0025 65.424 74.4705 65.72 74.8945 66.064C75.3265 66.408 75.5425 66.944 75.5425 67.672C75.5425 68.36 75.2985 68.96 74.8105 69.472C74.3305 69.976 73.6745 70.228 72.8425 70.228C72.2425 70.228 71.7545 70.104 71.3785 69.856C71.0105 69.608 70.7185 69.336 70.5025 69.04C70.4225 68.92 70.3505 68.804 70.2865 68.692C70.2225 68.572 70.1705 68.46 70.1305 68.356L70.8985 67.972C70.9065 68.004 70.9185 68.04 70.9345 68.08C70.9505 68.112 70.9665 68.144 70.9825 68.176C71.1265 68.528 71.3545 68.848 71.6665 69.136C71.9865 69.424 72.4025 69.568 72.9145 69.568C73.4585 69.568 73.8865 69.388 74.1985 69.028C74.5185 68.66 74.6785 68.224 74.6785 67.72C74.6785 67.336 74.5865 67.032 74.4025 66.808C74.2265 66.576 73.9625 66.356 73.6105 66.148C73.4985 66.084 73.3745 66.02 73.2385 65.956C73.1025 65.884 72.9545 65.812 72.7945 65.74C72.2345 65.476 71.7305 65.168 71.2825 64.816C70.8345 64.464 70.6105 63.972 70.6105 63.34C70.6105 63.228 70.6185 63.108 70.6345 62.98C70.6585 62.852 70.6945 62.724 70.7425 62.596C70.8625 62.284 71.0865 62 71.4145 61.744C71.7505 61.488 72.2505 61.36 72.9145 61.36C73.0505 61.36 73.2065 61.372 73.3825 61.396C73.5665 61.412 73.7505 61.456 73.9345 61.528C74.1585 61.608 74.3745 61.736 74.5825 61.912C74.7905 62.08 74.9665 62.32 75.1105 62.632ZM80.3843 70L84.1523 61.36L87.9083 70H87.0683L85.9043 67.264H82.3883L81.2243 70H80.3843ZM82.6763 66.592H85.6163L84.1523 63.148L82.6763 66.592ZM92.7493 70L93.8893 61.264L97.3933 68.752L100.897 61.264L102.037 70H101.281L100.477 63.784L97.3933 70.336L94.3093 63.784L93.5053 70H92.7493ZM107.802 70V61.6H110.13C110.274 61.6 110.434 61.608 110.61 61.624C110.786 61.64 110.97 61.672 111.162 61.72C111.53 61.824 111.87 62.032 112.182 62.344C112.494 62.648 112.65 63.14 112.65 63.82C112.65 64.5 112.494 64.996 112.182 65.308C111.878 65.62 111.538 65.828 111.162 65.932C110.978 65.98 110.794 66.012 110.61 66.028C110.426 66.044 110.266 66.052 110.13 66.052H108.618V70H107.802ZM108.618 62.272V65.38H110.094C110.19 65.38 110.298 65.376 110.418 65.368C110.546 65.352 110.678 65.328 110.814 65.296C111.062 65.224 111.29 65.08 111.498 64.864C111.706 64.64 111.81 64.292 111.81 63.82C111.81 63.348 111.702 63.004 111.486 62.788C111.278 62.572 111.05 62.428 110.802 62.356C110.674 62.324 110.546 62.304 110.418 62.296C110.298 62.28 110.19 62.272 110.094 62.272H108.618ZM118.459 70V61.6H119.275V69.328H121.987V70H118.459ZM127.37 70V61.6H131.87V62.272H128.186V64.96H131.738V65.632H128.186V69.328H131.87V70H127.37Z" fill="white"/>
<mask id="mask0_2241_467" style="mask-type:alpha" maskUnits="userSpaceOnUse" x="1" y="0" width="61" height="51">
<path fill-rule="evenodd" clip-rule="evenodd" d="M19.732 0.0195644H1L22.925 50.2049H41.1347L61.7444 0H49.5847L34.5615 36.1701L19.732 0.0195644Z" fill="black"/>
</mask>
<g mask="url(#mask0_2241_467)">
<rect x="-320.393" y="-2.3667" width="375.984" height="54.9067" fill="url(#paint0_linear_2241_467)"/>
</g>
<mask id="mask1_2241_467" style="mask-type:alpha" maskUnits="userSpaceOnUse" x="22" y="0" width="62" height="51">
<path fill-rule="evenodd" clip-rule="evenodd" d="M41.1915 50.1734H22.9146L44.5358 0.00415039H61.6512L83.2022 49.9776H70.4958L56.0114 13.9792L41.1915 50.1734Z" fill="#1B3E8B"/>
</mask>
<g mask="url(#mask1_2241_467)">
<rect x="-310.393" y="-2.3667" width="375.984" height="54.9067" fill="url(#paint1_linear_2241_467)"/>
</g>
<mask id="mask2_2241_467" style="mask-type:alpha" maskUnits="userSpaceOnUse" x="44" y="0" width="89" height="50">
<path fill-rule="evenodd" clip-rule="evenodd" d="M44.5677 0L61.6545 0.0195644L74.8632 29.6909L87.7075 0.00410542H91.5059L91.5076 0H97.6838L97.6821 0.00410542H110.728L132.28 49.9775H113.667L99.183 13.9791L84.559 49.9775H77.3021L77.3021 49.9777H64.9495L44.5677 0Z" fill="#19BF84"/>
</mask>
<g mask="url(#mask2_2241_467)">
<rect x="-243.556" y="-2.3667" width="375.984" height="54.9067" fill="url(#paint2_linear_2241_467)"/>
</g>
<defs>
<linearGradient id="paint0_linear_2241_467" x1="-320.393" y1="-2.3667" x2="55.591" y2="-2.3667" gradientUnits="userSpaceOnUse">
<stop stop-color="#305A4B"/>
<stop offset="0.226479"/>
<stop offset="0.5625" stop-color="#59955C"/>
<stop offset="0.872405" stop-color="white"/>
<stop offset="1" stop-color="white"/>
</linearGradient>
<linearGradient id="paint1_linear_2241_467" x1="-310.393" y1="14.3578" x2="65.591" y2="14.3577" gradientUnits="userSpaceOnUse">
<stop stop-color="#8DCD90"/>
<stop offset="0.25" stop-color="#8DCD90"/>
<stop offset="0.463542" stop-color="#003220"/>
<stop offset="0.755208" stop-color="#59955C"/>
<stop offset="1" stop-color="#59955C"/>
</linearGradient>
<linearGradient id="paint2_linear_2241_467" x1="-243.556" y1="14.3578" x2="132.429" y2="14.3577" gradientUnits="userSpaceOnUse">
<stop stop-color="#59955C"/>
<stop offset="0.25" stop-color="#59955C"/>
<stop offset="0.463542" stop-color="#305A4B"/>
<stop offset="0.755208" stop-color="#8DCD90"/>
<stop offset="1" stop-color="#8DCD90"/>
</linearGradient>
</defs>
</svg>
