<svg width="34" height="35" viewBox="0 0 34 35" fill="none" xmlns="http://www.w3.org/2000/svg">
<circle cx="17" cy="17.5" r="17" fill="#CDCDCD"/>
<path d="M25.1616 10.5C25.1049 10.5 25.0401 10.5081 24.9834 10.5324L9.32613 16.4859C8.88064 16.656 8.89684 17.2797 9.34233 17.4336L12.9711 18.6567L15.1581 23.0388L15.1662 23.0469C15.2067 23.1279 15.2877 23.1765 15.3768 23.1765C15.4254 23.1765 15.4821 23.1603 15.5307 23.1198L17.58 21.3783L15.2877 19.6449L15.4659 21.9291L13.8216 18.519L22.5696 13.2621L15.2877 19.6368L20.9577 23.9379C21.144 24.0837 21.3627 24.1485 21.5814 24.1485C22.0269 24.1485 22.4643 23.8569 22.5858 23.3628L25.6476 11.1075C25.7286 10.7997 25.4694 10.5 25.1616 10.5Z" fill="#262D2A"/>
</svg>
