<svg width="35" height="35" viewBox="0 0 35 35" fill="none" xmlns="http://www.w3.org/2000/svg">
<circle cx="17.0857" cy="17.5" r="17" fill="#CDCDCD"/>
<path d="M17.5925 26.5C16.1045 26.5 14.6436 26.1059 13.3527 25.3585L10.0369 26.5L10.7164 22.994C9.64964 21.5332 9.08569 19.8141 9.08569 18C9.08569 13.3118 12.8974 9.5 17.5857 9.5C22.2739 9.5 26.0857 13.3118 26.0857 18C26.0992 22.6815 22.2875 26.5 17.5925 26.5ZM13.5089 23.9656L13.7671 24.1287C14.9222 24.8557 16.2471 25.2362 17.5993 25.2362C21.5877 25.2362 24.8355 21.9884 24.8355 18C24.8355 14.0116 21.5877 10.7638 17.5993 10.7638C13.6041 10.757 10.3563 14.0048 10.3563 17.9932C10.3563 19.6171 10.8862 21.1527 11.8918 22.4436L12.0685 22.6679L11.6948 24.5839L13.5089 23.9656Z" fill="#262D2A"/>
<path d="M13.3051 14.7318C13.3051 14.7318 13.8011 13.8621 14.2087 13.8077C14.6164 13.7602 15.1396 13.7602 15.2823 14.0252C15.425 14.2901 16.0568 15.8393 16.0568 15.8393C16.0568 15.8393 16.1656 16.1043 15.9957 16.3625C15.8258 16.6139 15.4521 16.9876 15.4521 16.9876C15.4521 16.9876 15.2415 17.2526 15.4521 17.5379C15.6628 17.8233 15.9821 18.3397 16.648 19.0056C17.3138 19.6714 18.5912 20.1471 18.5912 20.1471C18.5912 20.1471 18.7747 20.1742 18.8902 20.0587C19.0057 19.9432 19.6376 19.1551 19.6376 19.1551C19.6376 19.1551 19.8414 18.8969 20.1743 19.0463C20.5073 19.2026 21.9681 19.9296 21.9681 19.9296C21.9681 19.9296 22.138 19.9908 22.138 20.249C22.138 20.5072 22.036 21.1391 21.8186 21.3497C21.608 21.5603 20.9829 22.2194 20.0452 22.2194C19.1076 22.2194 16.879 21.4584 15.6899 20.2694C14.5009 19.0803 13.4477 17.8777 13.1963 16.7838C12.9653 15.6762 12.9993 15.1802 13.3051 14.7318Z" fill="#262D2A"/>
</svg>
